<svg xmlns="http://www.w3.org/2000/svg" viewBox="0 0 16.037 14.973"><path fill="#fff" d="M6.187-19.845c4.418 0 8 3.582 8 8 0 4.419-3.582 8-8 8s-8-3.581-8-8c0-4.418 3.582-8 8-8z"/><path d="M6.187-18.845c-3.866 0-7 3.134-7 7s3.134 7 7 7 7-3.134 7-7-3.134-7-7-7zM10.177-9.28l-1.426 1.426-2.564-2.564-2.565 2.564-1.426-1.426 2.564-2.564-2.564-2.564 1.426-1.426 2.564 2.564 2.564-2.564 1.426 1.426-2.564 2.564 2.565 2.564z"/><path d="M5.287 14.972l10.75-12.816-2.177-2.156-8.573 10.661-3.144-4.148-2.143 2.123 5.287 6.336z"/></svg>