<svg xmlns="http://www.w3.org/2000/svg" width="18" height="54"><path fill="#010101" d="M13 45.42c0-2.209-1.791-4-4-4s-4 1.791-4 4c0 1.631.979 3.027 2.379 3.65l.811-1.824c-.7-.31-1.19-1.012-1.19-1.826 0-1.104.896-2 2-2s2 .896 2 2c0 .814-.49 1.516-1.189 1.826l.811 1.824c1.399-.623 2.378-2.019 2.378-3.65zm-4-9c-4.971 0-9 4.029-9 9 0 3.67 2.199 6.82 5.349 8.223l1.217-2.74c-2.099-.936-3.566-3.038-3.566-5.483 0-3.312 2.687-6 6-6 3.312 0 6 2.688 6 6 0 2.445-1.467 4.548-3.566 5.48l1.217 2.74c3.15-1.4 5.35-4.551 5.35-8.221-.001-4.97-4.03-8.999-9.001-8.999z"/><polygon fill="#020202" points="4.518,15.315 15.477,8.988 4.518,2.66"/><path fill="#010101" d="M4 33h4v-12h-4v12zm6-12v12h4v-12h-4z"/></svg>