<?xml version="1.0" encoding="UTF-8" standalone="no"?>
<!-- Created with Inkscape (http://www.inkscape.org/) -->

<svg
   xmlns:dc="http://purl.org/dc/elements/1.1/"
   xmlns:cc="http://creativecommons.org/ns#"
   xmlns:rdf="http://www.w3.org/1999/02/22-rdf-syntax-ns#"
   xmlns:svg="http://www.w3.org/2000/svg"
   xmlns="http://www.w3.org/2000/svg"
   version="1.1"
   width="744.09003"
   height="398"
   id="svg2">
  <defs
     id="defs4">
    <marker
       refX="0"
       refY="0"
       orient="auto"
       id="Arrow1Mend"
       style="overflow:visible">
      <path
         d="M 0,0 5,-5 -12.5,0 5,5 0,0 z"
         transform="matrix(-0.4,0,0,-0.4,-4,0)"
         id="path3887"
         style="fill-rule:evenodd;stroke:#000000;stroke-width:1pt" />
    </marker>
    <marker
       refX="0"
       refY="0"
       orient="auto"
       id="Arrow1Sstart"
       style="overflow:visible">
      <path
         d="M 0,0 5,-5 -12.5,0 5,5 0,0 z"
         transform="matrix(0.2,0,0,0.2,1.2,0)"
         id="path3890"
         style="fill-rule:evenodd;stroke:#000000;stroke-width:1pt" />
    </marker>
    <marker
       refX="0"
       refY="0"
       orient="auto"
       id="Arrow1Mstart"
       style="overflow:visible">
      <path
         d="M 0,0 5,-5 -12.5,0 5,5 0,0 z"
         transform="matrix(0.4,0,0,0.4,4,0)"
         id="path3884"
         style="fill-rule:evenodd;stroke:#000000;stroke-width:1pt" />
    </marker>
    <marker
       refX="0"
       refY="0"
       orient="auto"
       id="Arrow1Lstart"
       style="overflow:visible">
      <path
         d="M 0,0 5,-5 -12.5,0 5,5 0,0 z"
         transform="matrix(0.8,0,0,0.8,10,0)"
         id="path3878"
         style="fill-rule:evenodd;stroke:#000000;stroke-width:1pt" />
    </marker>
    <marker
       refX="0"
       refY="0"
       orient="auto"
       id="Arrow1Lstart-6"
       style="overflow:visible">
      <path
         d="M 0,0 5,-5 -12.5,0 5,5 0,0 z"
         transform="matrix(0.8,0,0,0.8,10,0)"
         id="path3878-2"
         style="fill-rule:evenodd;stroke:#000000;stroke-width:1pt" />
    </marker>
  </defs>
  <metadata
     id="metadata7">
    <rdf:RDF>
      <cc:Work
         rdf:about="">
        <dc:format>image/svg+xml</dc:format>
        <dc:type
           rdf:resource="http://purl.org/dc/dcmitype/StillImage" />
        <dc:title></dc:title>
      </cc:Work>
    </rdf:RDF>
  </metadata>
  <g
     transform="translate(0,-654.36218)"
     id="layer1">
    <rect
       width="744.58344"
       height="398.1011"
       x="-0.2467041"
       y="654.31165"
       id="rect3074"
       style="fill:#ffffff;fill-opacity:1;stroke:#afafaf;stroke-width:0;stroke-miterlimit:4;stroke-opacity:1;stroke-dasharray:none;stroke-dashoffset:0" />
    <rect
       width="418.57144"
       height="175.71428"
       x="66.978943"
       y="845.24524"
       id="rect2985"
       style="fill:#ffffff;fill-rule:evenodd;stroke:#000000;stroke-width:1px;stroke-linecap:butt;stroke-linejoin:miter;stroke-opacity:1" />
    <g
       transform="translate(-2.8593716,725.38306)"
       id="g3767">
      <rect
         width="36.438694"
         height="24.652975"
         x="356.60208"
         y="99.499977"
         id="rect3757"
         style="fill:#ffffff;fill-opacity:1;stroke:none" />
      <path
         d="m 356.3048,119.76464 18.59959,-16.69263 18.59958,16.99613"
         id="path3755"
         style="fill:none;stroke:#000000;stroke-width:1;stroke-linecap:butt;stroke-linejoin:miter;stroke-miterlimit:4;stroke-opacity:1;stroke-dasharray:none" />
    </g>
    <rect
       width="610.13214"
       height="78.791901"
       x="66.978943"
       y="734.90704"
       id="rect3836"
       style="fill:#f9f9f9;fill-opacity:1;stroke:#7a7a7a;stroke-width:1;stroke-miterlimit:4;stroke-opacity:1;stroke-dasharray:3, 1;stroke-dashoffset:0" />
    <g
       transform="translate(-0.00222778,654.31163)"
       id="flowRoot3838"
       style="font-size:40px;font-style:normal;font-weight:normal;line-height:125%;letter-spacing:0px;word-spacing:0px;fill:#000000;fill-opacity:1;stroke:none;font-family:Sans">
      <path
         d="m 322.64453,113.82351 c -1.92709,2e-5 -3.45053,0.75523 -4.57031,2.26563 -1.1198,1.49741 -1.67969,3.5547 -1.67969,6.17187 0,2.6172 0.55338,4.681 1.66016,6.19141 1.11978,1.4974 2.64973,2.2461 4.58984,2.24609 1.91405,1e-5 3.43098,-0.7552 4.55078,-2.26562 1.11978,-1.51041 1.67967,-3.5677 1.67969,-6.17188 -2e-5,-2.59113 -0.55991,-4.64191 -1.67969,-6.15234 -1.1198,-1.52342 -2.63673,-2.28514 -4.55078,-2.28516 m 0,-3.04687 c 3.12499,2e-5 5.57941,1.01565 7.36328,3.04687 1.78384,2.03127 2.67576,4.84377 2.67578,8.4375 -2e-5,3.58074 -0.89194,6.39324 -2.67578,8.4375 -1.78387,2.03125 -4.23829,3.04688 -7.36328,3.04688 -3.13803,0 -5.59896,-1.01563 -7.38281,-3.04688 -1.77084,-2.04426 -2.65625,-4.85676 -2.65625,-8.4375 0,-3.59373 0.88541,-6.40623 2.65625,-8.4375 1.78385,-2.03122 4.24478,-3.04685 7.38281,-3.04687"
         id="path7198"
         style="text-align:center;line-height:167.99999475%;text-anchor:middle" />
      <path
         d="m 336.53125,111.30398 3.59375,0 4.49219,17.07032 4.47265,-17.07032 4.23828,0 4.49219,17.07032 4.47266,-17.07032 3.59375,0 -5.72266,21.875 -4.23828,0 -4.70703,-17.92968 -4.72656,17.92968 -4.23828,0 -5.72266,-21.875"
         id="path7200"
         style="text-align:center;line-height:167.99999475%;text-anchor:middle" />
      <path
         d="m 389.53906,119.97586 0,13.20312 -3.59375,0 0,-13.08593 c -2e-5,-2.0703 -0.40366,-3.61978 -1.21094,-4.64844 -0.8073,-1.02863 -2.01824,-1.54295 -3.63281,-1.54297 -1.94011,2e-5 -3.47006,0.61851 -4.58984,1.85547 -1.1198,1.23699 -1.6797,2.92319 -1.67969,5.05859 l 0,12.36328 -3.61328,0 0,-21.875 3.61328,0 0,3.39844 c 0.85937,-1.31508 1.86848,-2.29816 3.02734,-2.94922 1.17187,-0.65102 2.51952,-0.97654 4.04297,-0.97656 2.51301,2e-5 4.41405,0.78127 5.70313,2.34375 1.28904,1.5495 1.93357,3.83465 1.93359,6.85547"
         id="path7202"
         style="text-align:center;line-height:167.99999475%;text-anchor:middle" />
      <path
         d="m 415.45703,121.34305 0,1.75781 -16.52344,0 c 0.15625,2.47396 0.89843,4.36198 2.22657,5.66406 1.34113,1.28907 3.20311,1.9336 5.58593,1.93359 1.3802,1e-5 2.71483,-0.16926 4.00391,-0.50781 1.30206,-0.33854 2.59113,-0.84635 3.86719,-1.52344 l 0,3.39844 c -1.28909,0.54688 -2.6107,0.96354 -3.96485,1.25 -1.35418,0.28646 -2.72788,0.42969 -4.12109,0.42969 -3.48959,0 -6.25652,-1.01563 -8.30078,-3.04688 -2.03125,-2.03124 -3.04688,-4.77863 -3.04688,-8.24218 0,-3.58072 0.96354,-6.41926 2.89063,-8.51563 1.9401,-2.10935 4.55077,-3.16404 7.83203,-3.16406 2.94269,2e-5 5.26691,0.95054 6.97266,2.85156 1.71872,1.88804 2.5781,4.45965 2.57812,7.71485 m -3.59375,-1.05469 c -0.0261,-1.96613 -0.57944,-3.53514 -1.66016,-4.70703 -1.06772,-1.17186 -2.48699,-1.7578 -4.25781,-1.75782 -2.00522,2e-5 -3.61329,0.56643 -4.82422,1.69922 -1.19792,1.13283 -1.88802,2.72788 -2.07031,4.78516 l 12.8125,-0.0195"
         id="path7204"
         style="text-align:center;line-height:167.99999475%;text-anchor:middle" />
      <path
         d="m 434.03125,114.66336 c -0.40366,-0.23436 -0.84637,-0.40363 -1.32813,-0.50781 -0.46876,-0.11717 -0.98959,-0.17577 -1.5625,-0.17579 -2.03126,2e-5 -3.59375,0.66409 -4.6875,1.99219 -1.08073,1.31512 -1.6211,3.20965 -1.62109,5.6836 l 0,11.52343 -3.61328,0 0,-21.875 3.61328,0 0,3.39844 c 0.7552,-1.3281 1.73827,-2.31118 2.94922,-2.94922 1.21093,-0.65102 2.68228,-0.97654 4.41406,-0.97656 0.24738,2e-5 0.52082,0.0195 0.82031,0.0586 0.29947,0.0261 0.6315,0.0716 0.9961,0.13672 l 0.0195,3.69141"
         id="path7206"
         style="text-align:center;line-height:167.99999475%;text-anchor:middle" />
    </g>
    <path
       d="m 371.73391,677.22138 0,362.85872"
       id="path36"
       style="fill:none;stroke:#9c9c9c;stroke-width:0.88657856;stroke-linecap:butt;stroke-linejoin:miter;stroke-miterlimit:4;stroke-opacity:1;stroke-dasharray:3.54631416, 3.54631416;stroke-dashoffset:0" />
    <path
       d="m 66.909182,677.22062 0,362.15318"
       id="path38"
       style="fill:none;stroke:#9c9c9c;stroke-width:0.88571614;stroke-linecap:butt;stroke-linejoin:miter;stroke-miterlimit:4;stroke-opacity:1;stroke-dasharray:3.54286458, 3.54286458;stroke-dashoffset:0" />
    <path
       d="m 288.92033,828.45953 260.24588,0"
       id="path3866"
       style="fill:none;stroke:#afafaf;stroke-width:0.60603833;stroke-linecap:butt;stroke-linejoin:miter;stroke-miterlimit:4;stroke-opacity:1;stroke-dasharray:none" />
    <path
       d="m 371.21718,845.03536 177.97604,0"
       id="path3868"
       style="fill:none;stroke:#afafaf;stroke-width:0.53073001;stroke-linecap:butt;stroke-linejoin:miter;stroke-miterlimit:4;stroke-opacity:1;stroke-dasharray:none" />
    <path
       d="m 373.39063,702.12024 17.85714,-20 135.71429,0"
       id="path3872"
       style="fill:none;stroke:#000000;stroke-width:1px;stroke-linecap:butt;stroke-linejoin:miter;stroke-opacity:1;marker-start:url(#Arrow1Lstart)" />
    <path
       d="m 528.92634,826.27147 0,-22.5 142.50255,0"
       id="path4318"
       style="fill:none;stroke:#000000;stroke-width:1px;stroke-linecap:butt;stroke-linejoin:miter;stroke-opacity:1;marker-start:url(#Arrow1Mstart);marker-mid:none;marker-end:none" />
    <path
       d="m 528.81263,847.28654 0,15.15228"
       id="path4322"
       style="fill:none;stroke:#000000;stroke-width:1px;stroke-linecap:butt;stroke-linejoin:miter;stroke-opacity:1;marker-start:url(#Arrow1Mstart)" />
    <path
       d="m 292.85491,833.77203 0,-3.03125"
       id="path5612"
       style="fill:none;stroke:#000000;stroke-width:1px;stroke-linecap:butt;stroke-linejoin:miter;stroke-opacity:1;marker-end:url(#Arrow1Mend)" />
    <path
       d="m 292.85491,812.29881 0,-8.48214 -133.61577,0"
       id="path5618"
       style="fill:none;stroke:#000000;stroke-width:1px;stroke-linecap:butt;stroke-linejoin:miter;stroke-opacity:1;marker-start:url(#Arrow1Mstart)" />
    <path
       d="m 68.668762,701.94494 17.85714,-20 135.714288,0"
       id="path3872-2"
       style="fill:none;stroke:#000000;stroke-width:1px;stroke-linecap:butt;stroke-linejoin:miter;stroke-opacity:1;marker-start:url(#Arrow1Lstart)" />
    <path
       d="m 292.83259,832.99077 0,7.90179"
       id="path6402"
       style="fill:none;stroke:#000000;stroke-width:1px;stroke-linecap:butt;stroke-linejoin:miter;stroke-opacity:1" />
    <path
       d="m 390.67635,840.9224 0,78.82719"
       id="path3866-0"
       style="fill:none;stroke:#afafaf;stroke-width:0.33353868;stroke-linecap:butt;stroke-linejoin:miter;stroke-miterlimit:4;stroke-opacity:1;stroke-dasharray:none" />
    <path
       d="m 352.85492,840.93439 0,78.82719"
       id="path3866-0-1"
       style="fill:none;stroke:#afafaf;stroke-width:0.33353868;stroke-linecap:butt;stroke-linejoin:miter;stroke-miterlimit:4;stroke-opacity:1;stroke-dasharray:none" />
    <path
       d="m 416.4084,885.5131 -23.92857,0"
       id="path6479"
       style="fill:none;stroke:#000000;stroke-width:1px;stroke-linecap:butt;stroke-linejoin:miter;stroke-opacity:1;marker-end:url(#Arrow1Mend)" />
    <path
       d="m 351.02401,885.51309 -108.03571,0"
       id="path6483"
       style="fill:none;stroke:#000000;stroke-width:1px;stroke-linecap:butt;stroke-linejoin:miter;stroke-opacity:1;marker-start:url(#Arrow1Mstart)" />
    <g
       transform="translate(-0.00222778,654.31163)"
       id="text6869"
       style="font-size:40px;font-style:normal;font-weight:normal;line-height:125%;letter-spacing:0px;word-spacing:0px;fill:#000000;fill-opacity:1;stroke:none;font-family:Sans">
      <path
         d="m 127.14222,19.885738 c -1.30665,5e-6 -2.21192,0.149419 -2.71582,0.448243 -0.50391,0.298832 -0.75586,0.808597 -0.75586,1.529296 0,0.574222 0.1875,1.031252 0.5625,1.371094 0.38086,0.333986 0.89648,0.500978 1.54687,0.500977 0.89648,1e-6 1.61426,-0.316405 2.15333,-0.949219 0.54491,-0.638669 0.81737,-1.485348 0.81738,-2.540039 l 0,-0.360352 -1.6084,0 m 3.22559,-0.667968 0,5.616211 -1.61719,0 0,-1.494141 c -0.36915,0.597657 -0.82911,1.040039 -1.37988,1.327148 -0.55079,0.28125 -1.22462,0.421875 -2.02149,0.421875 -1.00782,0 -1.81055,-0.28125 -2.4082,-0.84375 -0.5918,-0.568358 -0.8877,-1.327146 -0.8877,-2.276367 0,-1.107418 0.36914,-1.942378 1.10742,-2.504883 0.74414,-0.562494 1.85156,-0.843743 3.32227,-0.84375 l 2.26758,0 0,-0.158203 c -1e-5,-0.744133 -0.2461,-1.318351 -0.73828,-1.722656 -0.48634,-0.410148 -1.17188,-0.615226 -2.05664,-0.615234 -0.56251,8e-6 -1.11036,0.06739 -1.64356,0.202148 -0.5332,0.134774 -1.0459,0.336922 -1.53808,0.606445 l 0,-1.49414 c 0.59179,-0.228506 1.16601,-0.398428 1.72265,-0.509766 0.55664,-0.117177 1.09863,-0.175771 1.62598,-0.175781 1.42382,10e-6 2.4873,0.36915 3.19043,1.107422 0.70311,0.738289 1.05468,1.857429 1.05469,3.357422"
         id="path7226"
         style="font-size:18px" />
      <path
         d="m 141.89027,14.990231 -3.55957,4.790039 3.74414,5.053711 -1.90723,0 -2.86523,-3.867188 -2.86524,3.867188 -1.90723,0 3.82325,-5.150391 -3.49805,-4.693359 1.90723,0 2.61035,3.506835 2.61035,-3.506835 1.90723,0"
         id="path7228"
         style="font-size:18px" />
      <path
         d="m 144.35999,14.990231 1.61719,0 0,9.84375 -1.61719,0 0,-9.84375 m 0,-3.832032 1.61719,0 0,2.047852 -1.61719,0 0,-2.047852"
         id="path7230"
         style="font-size:18px" />
      <path
         d="m 155.62757,15.28027 0,1.529296 c -0.45704,-0.234366 -0.93165,-0.410147 -1.42383,-0.527343 -0.49219,-0.117179 -1.00196,-0.175773 -1.52929,-0.175782 -0.80274,9e-6 -1.40626,0.123056 -1.81055,0.369141 -0.39844,0.246102 -0.59766,0.615242 -0.59766,1.107422 0,0.375007 0.14355,0.670905 0.43067,0.887695 0.2871,0.210944 0.86425,0.413092 1.73144,0.606446 l 0.55371,0.123046 c 1.14843,0.2461 1.96289,0.594732 2.44336,1.045899 0.48632,0.445317 0.72949,1.069339 0.72949,1.87207 0,0.914065 -0.36328,1.637697 -1.08984,2.170899 -0.72071,0.533203 -1.71387,0.799804 -2.97949,0.799804 -0.52735,0 -1.07813,-0.05273 -1.65234,-0.158203 -0.56837,-0.09961 -1.16895,-0.251953 -1.80176,-0.457031 l 0,-1.669922 c 0.59765,0.310549 1.18652,0.544923 1.7666,0.703125 0.58007,0.152345 1.15429,0.228517 1.72266,0.228516 0.76171,1e-6 1.34765,-0.128905 1.75781,-0.386719 0.41015,-0.26367 0.61523,-0.63281 0.61523,-1.107422 0,-0.43945 -0.14942,-0.776364 -0.44824,-1.010742 -0.29297,-0.234371 -0.94044,-0.459957 -1.94238,-0.676758 l -0.5625,-0.131836 c -1.00196,-0.210933 -1.72559,-0.533198 -2.1709,-0.966797 -0.44532,-0.439447 -0.66797,-1.040032 -0.66797,-1.801758 0,-0.925773 0.32812,-1.640616 0.98437,-2.144531 0.65625,-0.503896 1.58789,-0.755849 2.79493,-0.755859 0.59765,10e-6 1.16015,0.04396 1.6875,0.131836 0.52733,0.0879 1.01366,0.219736 1.45898,0.395508"
         id="path7232"
         style="font-size:18px" />
    </g>
    <g
       transform="translate(-0.00222778,654.31163)"
       id="text6869-5"
       style="font-size:40px;font-style:normal;font-weight:normal;line-height:125%;letter-spacing:0px;word-spacing:0px;fill:#000000;fill-opacity:1;stroke:none;font-family:Sans">
      <path
         d="m 409.10056,12.232874 0,2.794922 3.33105,0 0,1.256836 -3.33105,0 0,5.34375 c -10e-6,0.802737 0.10839,1.318361 0.32519,1.546875 0.22265,0.228517 0.67089,0.342775 1.34473,0.342773 l 1.66113,0 0,1.353516 -1.66113,0 c -1.24805,0 -2.10938,-0.231445 -2.58399,-0.694336 -0.47461,-0.468749 -0.71191,-1.318358 -0.71191,-2.548828 l 0,-5.34375 -1.18652,0 0,-1.256836 1.18652,0 0,-2.794922 1.62598,0"
         id="path7209"
         style="font-size:18px" />
      <path
         d="m 419.04099,19.923304 c -1.30665,5e-6 -2.21192,0.149418 -2.71583,0.448242 -0.5039,0.298832 -0.75586,0.808597 -0.75585,1.529297 -10e-6,0.574221 0.18749,1.031252 0.5625,1.371093 0.38085,0.333986 0.89648,0.500978 1.54687,0.500977 0.89648,1e-6 1.61425,-0.316405 2.15332,-0.949219 0.54492,-0.638669 0.81738,-1.485348 0.81738,-2.540039 l 0,-0.360351 -1.60839,0 m 3.22558,-0.667969 0,5.616211 -1.61719,0 0,-1.494141 c -0.36914,0.597657 -0.8291,1.04004 -1.37988,1.327149 -0.55079,0.281249 -1.22461,0.421874 -2.02148,0.421875 -1.00782,-1e-6 -1.81055,-0.28125 -2.40821,-0.84375 -0.5918,-0.568359 -0.88769,-1.327147 -0.88769,-2.276368 0,-1.107417 0.36914,-1.942378 1.10742,-2.504882 0.74414,-0.562494 1.85156,-0.843744 3.32227,-0.84375 l 2.26757,0 0,-0.158204 c 0,-0.744133 -0.2461,-1.318351 -0.73828,-1.722656 -0.48633,-0.410148 -1.17188,-0.615225 -2.05664,-0.615234 -0.5625,9e-6 -1.11035,0.06739 -1.64355,0.202148 -0.53321,0.134774 -1.0459,0.336923 -1.53809,0.606446 l 0,-1.494141 c 0.5918,-0.228506 1.16601,-0.398428 1.72266,-0.509766 0.55663,-0.117177 1.09863,-0.175771 1.62597,-0.175781 1.42383,1e-5 2.4873,0.36915 3.19043,1.107422 0.70312,0.738289 1.05468,1.857429 1.05469,3.357422"
         id="path7211"
         style="font-size:18px" />
      <path
         d="m 425.60641,15.027796 1.61719,0 0,9.84375 -1.61719,0 0,-9.84375 m 0,-3.832031 1.61719,0 0,2.047851 -1.61719,0 0,-2.047851"
         id="path7213"
         style="font-size:18px" />
      <path
         d="m 430.5986,11.195765 1.61719,0 0,13.675781 -1.61719,0 0,-13.675781"
         id="path7215"
         style="font-size:18px" />
      <path
         d="m 445.79489,19.923304 c -1.30664,5e-6 -2.21192,0.149418 -2.71582,0.448242 -0.50391,0.298832 -0.75586,0.808597 -0.75586,1.529297 0,0.574221 0.1875,1.031252 0.5625,1.371093 0.38086,0.333986 0.89648,0.500978 1.54688,0.500977 0.89648,1e-6 1.61425,-0.316405 2.15332,-0.949219 0.54491,-0.638669 0.81737,-1.485348 0.81738,-2.540039 l 0,-0.360351 -1.6084,0 m 3.22559,-0.667969 0,5.616211 -1.61719,0 0,-1.494141 c -0.36915,0.597657 -0.82911,1.04004 -1.37988,1.327149 -0.55079,0.281249 -1.22462,0.421874 -2.02149,0.421875 -1.00781,-1e-6 -1.81055,-0.28125 -2.4082,-0.84375 -0.5918,-0.568359 -0.8877,-1.327147 -0.8877,-2.276368 0,-1.107417 0.36914,-1.942378 1.10743,-2.504882 0.74413,-0.562494 1.85155,-0.843744 3.32226,-0.84375 l 2.26758,0 0,-0.158204 c -1e-5,-0.744133 -0.2461,-1.318351 -0.73828,-1.722656 -0.48634,-0.410148 -1.17188,-0.615225 -2.05664,-0.615234 -0.56251,9e-6 -1.11036,0.06739 -1.64356,0.202148 -0.5332,0.134774 -1.0459,0.336923 -1.53808,0.606446 l 0,-1.494141 c 0.59179,-0.228506 1.16601,-0.398428 1.72265,-0.509766 0.55664,-0.117177 1.09863,-0.175771 1.62598,-0.175781 1.42382,1e-5 2.4873,0.36915 3.19043,1.107422 0.70312,0.738289 1.05468,1.857429 1.05469,3.357422"
         id="path7217"
         style="font-size:18px" />
      <path
         d="m 460.54294,15.027796 -3.55957,4.790039 3.74414,5.053711 -1.90723,0 -2.86523,-3.867188 -2.86524,3.867188 -1.90722,0 3.82324,-5.150391 -3.49805,-4.693359 1.90723,0 2.61035,3.506836 2.61035,-3.506836 1.90723,0"
         id="path7219"
         style="font-size:18px" />
      <path
         d="m 463.01266,15.027796 1.61719,0 0,9.84375 -1.61719,0 0,-9.84375 m 0,-3.832031 1.61719,0 0,2.047851 -1.61719,0 0,-2.047851"
         id="path7221"
         style="font-size:18px" />
      <path
         d="m 474.28024,15.317835 0,1.529297 c -0.45704,-0.234367 -0.93164,-0.410148 -1.42383,-0.527344 -0.49219,-0.117179 -1.00195,-0.175773 -1.52929,-0.175781 -0.80274,8e-6 -1.40626,0.123055 -1.81055,0.36914 -0.39844,0.246102 -0.59766,0.615242 -0.59766,1.107422 0,0.375007 0.14356,0.670905 0.43067,0.887696 0.2871,0.210943 0.86425,0.413091 1.73144,0.606445 l 0.55372,0.123047 c 1.14843,0.246099 1.96288,0.594731 2.44335,1.045898 0.48632,0.445317 0.72949,1.06934 0.7295,1.87207 -1e-5,0.914065 -0.36329,1.637697 -1.08985,2.170899 -0.72071,0.533203 -1.71387,0.799804 -2.97949,0.799805 -0.52735,-1e-6 -1.07813,-0.05274 -1.65234,-0.158204 -0.56836,-0.09961 -1.16895,-0.251952 -1.80176,-0.457031 l 0,-1.669922 c 0.59765,0.310549 1.18652,0.544924 1.7666,0.703125 0.58008,0.152345 1.15429,0.228517 1.72266,0.228516 0.76171,1e-6 1.34765,-0.128905 1.75781,-0.386719 0.41015,-0.26367 0.61523,-0.63281 0.61523,-1.107422 0,-0.43945 -0.14942,-0.776363 -0.44824,-1.010742 -0.29297,-0.234371 -0.94043,-0.459957 -1.94238,-0.676758 l -0.5625,-0.131836 c -1.00196,-0.210932 -1.72559,-0.533198 -2.1709,-0.966796 -0.44531,-0.439448 -0.66797,-1.040033 -0.66797,-1.801758 0,-0.925773 0.32813,-1.640616 0.98438,-2.144532 0.65624,-0.503896 1.58788,-0.755849 2.79492,-0.755859 0.59765,1e-5 1.16015,0.04396 1.6875,0.131836 0.52734,0.0879 1.01366,0.219736 1.45898,0.395508"
         id="path7223"
         style="font-size:18px" />
    </g>
    <g
       transform="translate(-0.00222778,654.31163)"
       id="text6869-6"
       style="font-size:40px;font-style:normal;font-weight:normal;line-height:125%;letter-spacing:0px;word-spacing:0px;fill:#000000;fill-opacity:1;stroke:none;font-family:Sans">
      <path
         d="m 173.29491,145.08742 0,5.2207 -1.62598,0 0,-13.58789 1.62598,0 0,1.49414 c 0.33984,-0.58593 0.76757,-1.01952 1.2832,-1.30078 0.52148,-0.2871 1.14257,-0.43065 1.86328,-0.43066 1.19531,1e-5 2.16503,0.47461 2.90918,1.42382 0.74999,0.94923 1.12499,2.19728 1.125,3.74414 -1e-5,1.54688 -0.37501,2.79493 -1.125,3.74414 -0.74415,0.94922 -1.71387,1.42383 -2.90918,1.42383 -0.72071,0 -1.3418,-0.14062 -1.86328,-0.42187 -0.51563,-0.28711 -0.94336,-0.72363 -1.2832,-1.30957 m 5.50195,-3.43653 c -1e-5,-1.18944 -0.2461,-2.12108 -0.73828,-2.79492 -0.48634,-0.67968 -1.15723,-1.01952 -2.0127,-1.01953 -0.85547,1e-5 -1.5293,0.33985 -2.02148,1.01953 -0.48633,0.67384 -0.7295,1.60548 -0.72949,2.79492 -10e-6,1.18946 0.24316,2.12403 0.72949,2.80372 0.49218,0.67382 1.16601,1.01074 2.02148,1.01074 0.85547,0 1.52636,-0.33692 2.0127,-1.01074 0.49218,-0.67969 0.73827,-1.61426 0.73828,-2.80372"
         id="path7177"
         style="font-size:18px" />
      <path
         d="m 186.97069,137.85402 c -0.86719,1e-5 -1.55274,0.33985 -2.05664,1.01953 -0.50391,0.67384 -0.75586,1.59962 -0.75586,2.77734 0,1.17774 0.24902,2.10645 0.74707,2.78614 0.5039,0.67383 1.19238,1.01074 2.06543,1.01074 0.86132,0 1.54394,-0.33984 2.04785,-1.01953 0.5039,-0.67969 0.75585,-1.60547 0.75586,-2.77735 -1e-5,-1.16601 -0.25196,-2.08886 -0.75586,-2.76855 -0.50391,-0.68554 -1.18653,-1.02831 -2.04785,-1.02832 m 0,-1.37109 c 1.40624,1e-5 2.51073,0.45704 3.31347,1.37109 0.80273,0.91407 1.2041,2.17969 1.20411,3.79687 -1e-5,1.61134 -0.40138,2.87696 -1.20411,3.79688 -0.80274,0.91406 -1.90723,1.37109 -3.31347,1.37109 -1.41212,0 -2.51954,-0.45703 -3.32227,-1.37109 -0.79687,-0.91992 -1.19531,-2.18554 -1.19531,-3.79688 0,-1.61718 0.39844,-2.8828 1.19531,-3.79687 0.80273,-0.91405 1.91015,-1.37108 3.32227,-1.37109"
         id="path7179"
         style="font-size:18px" />
      <path
         d="m 195.72459,145.08742 0,5.2207 -1.62597,0 0,-13.58789 1.62597,0 0,1.49414 c 0.33984,-0.58593 0.76758,-1.01952 1.28321,-1.30078 0.52148,-0.2871 1.14257,-0.43065 1.86328,-0.43066 1.1953,1e-5 2.16503,0.47461 2.90918,1.42382 0.74999,0.94923 1.12499,2.19728 1.125,3.74414 -1e-5,1.54688 -0.37501,2.79493 -1.125,3.74414 -0.74415,0.94922 -1.71388,1.42383 -2.90918,1.42383 -0.72071,0 -1.3418,-0.14062 -1.86328,-0.42187 -0.51563,-0.28711 -0.94337,-0.72363 -1.28321,-1.30957 m 5.50196,-3.43653 c -1e-5,-1.18944 -0.24611,-2.12108 -0.73828,-2.79492 -0.48634,-0.67968 -1.15724,-1.01952 -2.0127,-1.01953 -0.85547,1e-5 -1.5293,0.33985 -2.02148,1.01953 -0.48634,0.67384 -0.7295,1.60548 -0.7295,2.79492 0,1.18946 0.24316,2.12403 0.7295,2.80372 0.49218,0.67382 1.16601,1.01074 2.02148,1.01074 0.85546,0 1.52636,-0.33692 2.0127,-1.01074 0.49217,-0.67969 0.73827,-1.61426 0.73828,-2.80372"
         id="path7181"
         style="font-size:18px" />
      <path
         d="m 205.41893,142.67921 0,-5.95898 1.61719,0 0,5.89746 c -1e-5,0.93164 0.18163,1.63184 0.54492,2.10059 0.36328,0.46289 0.9082,0.69433 1.63477,0.69433 0.87304,0 1.56151,-0.27832 2.06542,-0.83496 0.50976,-0.55664 0.76465,-1.31542 0.76465,-2.27637 l 0,-5.58105 1.61719,0 0,9.84375 -1.61719,0 0,-1.51172 c -0.39258,0.59766 -0.84961,1.04297 -1.37109,1.33594 -0.51563,0.28711 -1.11622,0.43066 -1.80176,0.43066 -1.13086,0 -1.98926,-0.35156 -2.57519,-1.05468 -0.58594,-0.70313 -0.87891,-1.73145 -0.87891,-3.08497 m 4.06934,-6.19628 0,0"
         id="path7183"
         style="font-size:18px" />
      <path
         d="m 218.57616,145.08742 0,5.2207 -1.62598,0 0,-13.58789 1.62598,0 0,1.49414 c 0.33984,-0.58593 0.76757,-1.01952 1.2832,-1.30078 0.52148,-0.2871 1.14257,-0.43065 1.86328,-0.43066 1.19531,1e-5 2.16503,0.47461 2.90918,1.42382 0.74999,0.94923 1.12499,2.19728 1.125,3.74414 -1e-5,1.54688 -0.37501,2.79493 -1.125,3.74414 -0.74415,0.94922 -1.71387,1.42383 -2.90918,1.42383 -0.72071,0 -1.3418,-0.14062 -1.86328,-0.42187 -0.51563,-0.28711 -0.94336,-0.72363 -1.2832,-1.30957 m 5.50195,-3.43653 c -1e-5,-1.18944 -0.2461,-2.12108 -0.73828,-2.79492 -0.48634,-0.67968 -1.15723,-1.01952 -2.0127,-1.01953 -0.85547,1e-5 -1.5293,0.33985 -2.02148,1.01953 -0.48633,0.67384 -0.7295,1.60548 -0.72949,2.79492 -10e-6,1.18946 0.24316,2.12403 0.72949,2.80372 0.49218,0.67382 1.16601,1.01074 2.02148,1.01074 0.85547,0 1.52636,-0.33692 2.0127,-1.01074 0.49218,-0.67969 0.73827,-1.61426 0.73828,-2.80372"
         id="path7185"
         style="font-size:18px" />
      <path
         d="m 237.98241,137.85402 c -0.8672,1e-5 -1.55274,0.33985 -2.05664,1.01953 -0.50391,0.67384 -0.75587,1.59962 -0.75586,2.77734 -10e-6,1.17774 0.24902,2.10645 0.74707,2.78614 0.5039,0.67383 1.19238,1.01074 2.06543,1.01074 0.86132,0 1.54393,-0.33984 2.04785,-1.01953 0.5039,-0.67969 0.75585,-1.60547 0.75586,-2.77735 -1e-5,-1.16601 -0.25196,-2.08886 -0.75586,-2.76855 -0.50392,-0.68554 -1.18653,-1.02831 -2.04785,-1.02832 m 0,-1.37109 c 1.40624,1e-5 2.51073,0.45704 3.31347,1.37109 0.80273,0.91407 1.20409,2.17969 1.2041,3.79687 -1e-5,1.61134 -0.40137,2.87696 -1.2041,3.79688 -0.80274,0.91406 -1.90723,1.37109 -3.31347,1.37109 -1.41212,0 -2.51954,-0.45703 -3.32227,-1.37109 -0.79688,-0.91992 -1.19531,-2.18554 -1.19531,-3.79688 0,-1.61718 0.39843,-2.8828 1.19531,-3.79687 0.80273,-0.91405 1.91015,-1.37108 3.32227,-1.37109"
         id="path7187"
         style="font-size:18px" />
      <path
         d="m 256.21971,132.8882 0,1.34473 -1.54687,0 c -0.58009,1e-5 -0.98439,0.1172 -1.21289,0.35156 -0.22267,0.23438 -0.334,0.65626 -0.33399,1.26562 l 0,0.87012 2.66309,0 0,1.25684 -2.66309,0 0,8.58691 -1.62598,0 0,-8.58691 -4.43847,0 0,8.58691 -1.62598,0 0,-8.58691 -1.54687,0 0,-1.25684 1.54687,0 0,-0.68555 c 0,-1.09569 0.25488,-1.89256 0.76465,-2.39062 0.50976,-0.50389 1.31836,-0.75585 2.42578,-0.75586 l 1.5293,0 0,1.34473 -1.54688,0 c -0.58008,1e-5 -0.98438,0.1172 -1.21289,0.35156 -0.22266,0.23438 -0.33399,0.65626 -0.33398,1.26562 l 0,0.87012 4.43847,0 0,-0.68555 c 0,-1.09569 0.25488,-1.89256 0.76465,-2.39062 0.50976,-0.50389 1.31835,-0.75585 2.42578,-0.75586 l 1.5293,0"
         id="path7189"
         style="font-size:18px" />
      <path
         d="m 263.85741,137.01027 0,1.5293 c -0.45704,-0.23437 -0.93165,-0.41015 -1.42383,-0.52735 -0.4922,-0.11718 -1.00196,-0.17577 -1.5293,-0.17578 -0.80274,1e-5 -1.40625,0.12306 -1.81055,0.36914 -0.39844,0.2461 -0.59765,0.61524 -0.59765,1.10742 0,0.37501 0.14355,0.67091 0.43066,0.8877 0.28711,0.21094 0.86426,0.41309 1.73145,0.60644 l 0.55371,0.12305 c 1.14843,0.2461 1.96288,0.59473 2.44336,1.0459 0.48632,0.44532 0.72948,1.06934 0.72949,1.87207 -10e-6,0.91406 -0.36329,1.6377 -1.08984,2.1709 -0.72071,0.5332 -1.71388,0.7998 -2.9795,0.7998 -0.52734,0 -1.07812,-0.0527 -1.65234,-0.1582 -0.56836,-0.0996 -1.16895,-0.25195 -1.80176,-0.45703 l 0,-1.66992 c 0.59766,0.31055 1.18652,0.54492 1.7666,0.70312 0.58008,0.15235 1.1543,0.22852 1.72266,0.22852 0.76171,0 1.34765,-0.12891 1.75781,-0.38672 0.41015,-0.26367 0.61523,-0.63281 0.61524,-1.10742 -10e-6,-0.43945 -0.14942,-0.77637 -0.44824,-1.01075 -0.29298,-0.23437 -0.94044,-0.45995 -1.94239,-0.67675 l -0.5625,-0.13184 c -1.00195,-0.21093 -1.72559,-0.5332 -2.1709,-0.9668 -0.44531,-0.43944 -0.66797,-1.04003 -0.66796,-1.80175 -10e-6,-0.92578 0.32812,-1.64062 0.98437,-2.14454 0.65625,-0.50389 1.58789,-0.75584 2.79492,-0.75585 0.59765,1e-5 1.16015,0.0439 1.6875,0.13183 0.52734,0.0879 1.01367,0.21974 1.45899,0.39551"
         id="path7191"
         style="font-size:18px" />
      <path
         d="m 275.38866,141.23781 0,0.79101 -7.43555,0 c 0.0703,1.11329 0.40429,1.9629 1.00195,2.54883 0.60351,0.58008 1.4414,0.87012 2.51367,0.87012 0.62109,0 1.22168,-0.0762 1.80176,-0.22852 0.58593,-0.15234 1.16601,-0.38085 1.74024,-0.68554 l 0,1.52929 c -0.58009,0.2461 -1.17482,0.4336 -1.78418,0.5625 -0.60939,0.12891 -1.22755,0.19336 -1.85449,0.19336 -1.57032,0 -2.81544,-0.45703 -3.73536,-1.37109 -0.91406,-0.91406 -1.37109,-2.15039 -1.37109,-3.70899 0,-1.61132 0.43359,-2.88866 1.30078,-3.83203 0.87304,-0.94921 2.04785,-1.42381 3.52442,-1.42382 1.32421,1e-5 2.3701,0.42774 3.13769,1.2832 0.77343,0.84962 1.16015,2.00684 1.16016,3.47168 m -1.61719,-0.47461 c -0.0117,-0.88476 -0.26075,-1.59081 -0.74707,-2.11817 -0.48048,-0.52733 -1.11915,-0.791 -1.91602,-0.79101 -0.90235,1e-5 -1.62598,0.25489 -2.1709,0.76465 -0.53906,0.50977 -0.84961,1.22754 -0.93164,2.15332 l 5.76563,-0.009"
         id="path7193"
         style="font-size:18px" />
      <path
         d="m 279.64256,133.92531 0,2.79492 3.33106,0 0,1.25684 -3.33106,0 0,5.34375 c 0,0.80273 0.1084,1.31836 0.3252,1.54687 0.22265,0.22852 0.67089,0.34278 1.34472,0.34277 l 1.66114,0 0,1.35352 -1.66114,0 c -1.24805,0 -2.10937,-0.23144 -2.58398,-0.69434 -0.47461,-0.46874 -0.71192,-1.31835 -0.71191,-2.54882 l 0,-5.34375 -1.18653,0 0,-1.25684 1.18653,0 0,-2.79492 1.62597,0"
         id="path7195"
         style="font-size:18px" />
    </g>
    <g
       transform="translate(-0.00222778,654.31163)"
       id="text6869-8"
       style="font-size:40px;font-style:normal;font-weight:normal;line-height:125%;letter-spacing:0px;word-spacing:0px;fill:#000000;fill-opacity:1;stroke:none;font-family:Sans">
      <path
         d="m 537.71753,133.91994 0,2.79492 3.33105,0 0,1.25683 -3.33105,0 0,5.34375 c 0,0.80274 0.10839,1.31837 0.32519,1.54688 0.22266,0.22852 0.6709,0.34277 1.34473,0.34277 l 1.66113,0 0,1.35352 -1.66113,0 c -1.24805,0 -2.10938,-0.23145 -2.58398,-0.69434 -0.47461,-0.46875 -0.71192,-1.31835 -0.71192,-2.54883 l 0,-5.34375 -1.18652,0 0,-1.25683 1.18652,0 0,-2.79492 1.62598,0"
         id="path7156"
         style="font-size:18px" />
      <path
         d="m 547.65796,141.61037 c -1.30665,0 -2.21192,0.14942 -2.71582,0.44824 -0.50391,0.29883 -0.75586,0.8086 -0.75586,1.5293 0,0.57422 0.1875,1.03125 0.5625,1.37109 0.38086,0.33399 0.89648,0.50098 1.54687,0.50098 0.89648,0 1.61426,-0.31641 2.15332,-0.94922 0.54492,-0.63867 0.81738,-1.48535 0.81739,-2.54004 l 0,-0.36035 -1.6084,0 m 3.22558,-0.66797 0,5.61621 -1.61718,0 0,-1.49414 c -0.36915,0.59766 -0.82911,1.04004 -1.37989,1.32715 -0.55078,0.28125 -1.22461,0.42187 -2.02148,0.42187 -1.00782,0 -1.81055,-0.28125 -2.4082,-0.84375 -0.5918,-0.56836 -0.8877,-1.32714 -0.8877,-2.27637 0,-1.10741 0.36914,-1.94237 1.10742,-2.50488 0.74414,-0.56249 1.85156,-0.84374 3.32227,-0.84375 l 2.26758,0 0,-0.1582 c -10e-6,-0.74413 -0.2461,-1.31835 -0.73828,-1.72266 -0.48634,-0.41015 -1.17188,-0.61522 -2.05664,-0.61523 -0.56251,1e-5 -1.11036,0.0674 -1.64356,0.20215 -0.53321,0.13477 -1.0459,0.33692 -1.53809,0.60644 l 0,-1.49414 c 0.5918,-0.2285 1.16602,-0.39843 1.72266,-0.50976 0.55664,-0.11718 1.09863,-0.17578 1.62598,-0.17579 1.42382,1e-5 2.48729,0.36915 3.19043,1.10743 0.70311,0.73829 1.05468,1.85743 1.05468,3.35742"
         id="path7158"
         style="font-size:18px" />
      <path
         d="m 554.22339,136.71486 1.61719,0 0,9.84375 -1.61719,0 0,-9.84375 m 0,-3.83203 1.61719,0 0,2.04785 -1.61719,0 0,-2.04785"
         id="path7160"
         style="font-size:18px" />
      <path
         d="m 559.21558,132.88283 1.61718,0 0,13.67578 -1.61718,0 0,-13.67578"
         id="path7162"
         style="font-size:18px" />
      <path
         d="m 578.12085,140.6172 0,5.94141 -1.61719,0 0,-5.88867 c -10e-6,-0.93164 -0.18165,-1.6289 -0.54492,-2.0918 -0.36329,-0.46288 -0.90821,-0.69433 -1.63477,-0.69434 -0.87305,1e-5 -1.56152,0.27833 -2.06543,0.83497 -0.5039,0.55664 -0.75586,1.31543 -0.75585,2.27636 l 0,5.56348 -1.62598,0 0,-13.67578 1.62598,0 0,5.36133 c 0.38671,-0.59179 0.84081,-1.03417 1.3623,-1.32715 0.52734,-0.29296 1.13378,-0.43945 1.81934,-0.43946 1.13085,1e-5 1.98632,0.35158 2.5664,1.05469 0.58007,0.69728 0.87011,1.7256 0.87012,3.08496"
         id="path7164"
         style="font-size:18px" />
      <path
         d="m 589.78394,141.23244 0,0.79101 -7.43555,0 c 0.0703,1.11329 0.40429,1.9629 1.00195,2.54883 0.60351,0.58008 1.4414,0.87012 2.51367,0.87012 0.62109,0 1.22168,-0.0762 1.80176,-0.22852 0.58593,-0.15234 1.16601,-0.38086 1.74024,-0.68554 l 0,1.52929 c -0.58009,0.2461 -1.17482,0.4336 -1.78418,0.5625 -0.60939,0.12891 -1.22755,0.19336 -1.8545,0.19336 -1.57031,0 -2.81543,-0.45703 -3.73535,-1.37109 -0.91406,-0.91406 -1.37109,-2.15039 -1.37109,-3.70899 0,-1.61132 0.43359,-2.88866 1.30078,-3.83203 0.87304,-0.94921 2.04785,-1.42382 3.52441,-1.42383 1.32422,1e-5 2.37011,0.42775 3.1377,1.28321 0.77343,0.84961 1.16015,2.00684 1.16016,3.47168 m -1.61719,-0.47461 c -0.0117,-0.88476 -0.26075,-1.59082 -0.74707,-2.11817 -0.48048,-0.52733 -1.11915,-0.791 -1.91602,-0.79101 -0.90235,1e-5 -1.62598,0.25489 -2.1709,0.76465 -0.53906,0.50977 -0.84961,1.22754 -0.93164,2.15332 l 5.76563,-0.009"
         id="path7166"
         style="font-size:18px" />
      <path
         d="m 592.43823,136.71486 1.61719,0 0,9.84375 -1.61719,0 0,-9.84375 m 0,-3.83203 1.61719,0 0,2.04785 -1.61719,0 0,-2.04785"
         id="path7168"
         style="font-size:18px" />
      <path
         d="m 603.90796,141.52248 c -10e-6,-1.17187 -0.24317,-2.08007 -0.72949,-2.72461 -0.48048,-0.64453 -1.15724,-0.96679 -2.03028,-0.9668 -0.86719,10e-6 -1.54395,0.32227 -2.03027,0.9668 -0.48047,0.64454 -0.72071,1.55274 -0.7207,2.72461 -10e-6,1.16602 0.24023,2.07129 0.7207,2.71582 0.48632,0.64453 1.16308,0.96679 2.03027,0.96679 0.87304,0 1.5498,-0.32226 2.03028,-0.96679 0.48632,-0.64453 0.72948,-1.5498 0.72949,-2.71582 m 1.61719,3.81445 c -1e-5,1.67578 -0.37208,2.9209 -1.11621,3.73535 -0.74415,0.82031 -1.8838,1.23047 -3.41895,1.23047 -0.56836,0 -1.1045,-0.0439 -1.6084,-0.13184 -0.50391,-0.082 -0.99316,-0.21094 -1.46777,-0.38672 l 0,-1.57324 c 0.47461,0.25781 0.94335,0.44824 1.40625,0.57129 0.46288,0.12305 0.93456,0.18457 1.41504,0.18457 1.06054,0 1.85448,-0.27832 2.38183,-0.83496 0.52734,-0.55078 0.79101,-1.38574 0.79102,-2.50488 l 0,-0.79981 c -0.33399,0.58008 -0.76173,1.01368 -1.2832,1.30078 -0.52149,0.28711 -1.14552,0.43067 -1.87207,0.43067 -1.20704,0 -2.17969,-0.45996 -2.91797,-1.37988 -0.73829,-0.91992 -1.10743,-2.13867 -1.10743,-3.65625 0,-1.52343 0.36914,-2.74511 1.10743,-3.66504 0.73828,-0.91992 1.71093,-1.37988 2.91797,-1.37989 0.72655,1e-5 1.35058,0.14357 1.87207,0.43067 0.52147,0.28712 0.94921,0.72071 1.2832,1.30078 l 0,-1.49414 1.61719,0 0,8.62207"
         id="path7170"
         style="font-size:18px" />
      <path
         d="m 617.03882,140.6172 0,5.94141 -1.61719,0 0,-5.88867 c -1e-5,-0.93164 -0.18165,-1.6289 -0.54492,-2.0918 -0.36329,-0.46288 -0.90821,-0.69433 -1.63477,-0.69434 -0.87305,1e-5 -1.56152,0.27833 -2.06543,0.83497 -0.50391,0.55664 -0.75586,1.31543 -0.75586,2.27636 l 0,5.56348 -1.62597,0 0,-13.67578 1.62597,0 0,5.36133 c 0.38672,-0.59179 0.84082,-1.03417 1.36231,-1.32715 0.52734,-0.29296 1.13378,-0.43945 1.81933,-0.43946 1.13086,1e-5 1.98632,0.35158 2.56641,1.05469 0.58007,0.69728 0.87011,1.7256 0.87012,3.08496"
         id="path7172"
         style="font-size:18px" />
      <path
         d="m 621.88159,133.91994 0,2.79492 3.33106,0 0,1.25683 -3.33106,0 0,5.34375 c 0,0.80274 0.1084,1.31837 0.3252,1.54688 0.22265,0.22852 0.67089,0.34277 1.34472,0.34277 l 1.66114,0 0,1.35352 -1.66114,0 c -1.24805,0 -2.10937,-0.23145 -2.58398,-0.69434 -0.47461,-0.46875 -0.71192,-1.31835 -0.71191,-2.54883 l 0,-5.34375 -1.18653,0 0,-1.25683 1.18653,0 0,-2.79492 1.62597,0"
         id="path7174"
         style="font-size:18px" />
    </g>
    <g
       transform="translate(-0.00222778,654.31163)"
       id="text6869-8-4"
       style="font-size:40px;font-style:normal;font-weight:normal;line-height:125%;letter-spacing:0px;word-spacing:0px;fill:#000000;fill-opacity:1;stroke:none;font-family:Sans">
      <path
         d="m 253.06581,215.69226 0,2.79492 3.33106,0 0,1.25684 -3.33106,0 0,5.34375 c 0,0.80274 0.1084,1.31836 0.3252,1.54687 0.22265,0.22852 0.67089,0.34278 1.34472,0.34278 l 1.66114,0 0,1.35351 -1.66114,0 c -1.24805,0 -2.10937,-0.23144 -2.58398,-0.69433 -0.47461,-0.46875 -0.71192,-1.31836 -0.71192,-2.54883 l 0,-5.34375 -1.18652,0 0,-1.25684 1.18652,0 0,-2.79492 1.62598,0"
         id="path7137"
         style="font-size:18px" />
      <path
         d="m 263.00624,223.38269 c -1.30664,1e-5 -2.21192,0.14942 -2.71582,0.44824 -0.50391,0.29883 -0.75586,0.8086 -0.75586,1.5293 0,0.57422 0.1875,1.03125 0.5625,1.37109 0.38086,0.33399 0.89648,0.50098 1.54688,0.50098 0.89647,0 1.61425,-0.31641 2.15332,-0.94922 0.54491,-0.63867 0.81737,-1.48535 0.81738,-2.54004 l 0,-0.36035 -1.6084,0 m 3.22559,-0.66797 0,5.61621 -1.61719,0 0,-1.49414 c -0.36915,0.59766 -0.82911,1.04004 -1.37988,1.32715 -0.55079,0.28125 -1.22462,0.42188 -2.02149,0.42188 -1.00781,0 -1.81055,-0.28125 -2.4082,-0.84375 -0.5918,-0.56836 -0.8877,-1.32715 -0.8877,-2.27637 0,-1.10742 0.36914,-1.94238 1.10743,-2.50488 0.74413,-0.5625 1.85155,-0.84375 3.32226,-0.84375 l 2.26758,0 0,-0.15821 c -1e-5,-0.74413 -0.2461,-1.31835 -0.73828,-1.72265 -0.48634,-0.41015 -1.17188,-0.61523 -2.05664,-0.61524 -0.56251,1e-5 -1.11036,0.0674 -1.64356,0.20215 -0.5332,0.13477 -1.0459,0.33692 -1.53808,0.60645 l 0,-1.49415 c 0.59179,-0.2285 1.16601,-0.39842 1.72265,-0.50976 0.55664,-0.11718 1.09863,-0.17577 1.62598,-0.17578 1.42382,1e-5 2.4873,0.36915 3.19043,1.10742 0.70312,0.73829 1.05468,1.85743 1.05469,3.35742"
         id="path7139"
         style="font-size:18px" />
      <path
         d="m 269.57167,218.48718 1.61719,0 0,9.84375 -1.61719,0 0,-9.84375 m 0,-3.83203 1.61719,0 0,2.04785 -1.61719,0 0,-2.04785"
         id="path7141"
         style="font-size:18px" />
      <path
         d="m 274.56386,214.65515 1.61719,0 0,13.67578 -1.61719,0 0,-13.67578"
         id="path7143"
         style="font-size:18px" />
      <path
         d="m 284.34608,218.48718 1.61719,0 2.02149,7.68164 2.01269,-7.68164 1.90723,0 2.02148,7.68164 2.0127,-7.68164 1.61719,0 -2.5752,9.84375 -1.90723,0 -2.11816,-8.06836 -2.12695,8.06836 -1.90723,0 -2.5752,-9.84375"
         id="path7145"
         style="font-size:18px" />
      <path
         d="m 300.01698,218.48718 1.61719,0 0,9.84375 -1.61719,0 0,-9.84375 m 0,-3.83203 1.61719,0 0,2.04785 -1.61719,0 0,-2.04785"
         id="path7147"
         style="font-size:18px" />
      <path
         d="m 311.48671,219.98132 0,-5.32617 1.61719,0 0,13.67578 -1.61719,0 0,-1.47656 c -0.33985,0.58594 -0.77052,1.02246 -1.29199,1.30957 -0.51563,0.28125 -1.13673,0.42188 -1.86328,0.42188 -1.18946,0 -2.15919,-0.47461 -2.90918,-1.42383 -0.74415,-0.94922 -1.11622,-2.19726 -1.11621,-3.74414 -1e-5,-1.54687 0.37206,-2.79492 1.11621,-3.74414 0.74999,-0.94921 1.71972,-1.42382 2.90918,-1.42383 0.72655,1e-5 1.34765,0.14356 1.86328,0.43066 0.52147,0.28126 0.95214,0.71485 1.29199,1.30078 m -5.51074,3.43653 c -1e-5,1.18945 0.24316,2.12402 0.72949,2.80371 0.49218,0.67383 1.16601,1.01074 2.02148,1.01074 0.85547,0 1.52929,-0.33691 2.02149,-1.01074 0.49218,-0.67969 0.73827,-1.61426 0.73828,-2.80371 -1e-5,-1.18945 -0.2461,-2.12109 -0.73828,-2.79493 -0.4922,-0.67967 -1.16602,-1.01952 -2.02149,-1.01953 -0.85547,1e-5 -1.5293,0.33986 -2.02148,1.01953 -0.48633,0.67384 -0.7295,1.60548 -0.72949,2.79493"
         id="path7149"
         style="font-size:18px" />
      <path
         d="m 318.03456,215.69226 0,2.79492 3.33106,0 0,1.25684 -3.33106,0 0,5.34375 c 0,0.80274 0.1084,1.31836 0.3252,1.54687 0.22265,0.22852 0.67089,0.34278 1.34472,0.34278 l 1.66114,0 0,1.35351 -1.66114,0 c -1.24805,0 -2.10937,-0.23144 -2.58398,-0.69433 -0.47461,-0.46875 -0.71192,-1.31836 -0.71192,-2.54883 l 0,-5.34375 -1.18652,0 0,-1.25684 1.18652,0 0,-2.79492 1.62598,0"
         id="path7151"
         style="font-size:18px" />
      <path
         d="m 331.68398,222.38953 0,5.9414 -1.61719,0 0,-5.88867 c -1e-5,-0.93163 -0.18165,-1.6289 -0.54492,-2.0918 -0.36329,-0.46288 -0.90821,-0.69432 -1.63477,-0.69433 -0.87305,1e-5 -1.56153,0.27833 -2.06543,0.83496 -0.50391,0.55665 -0.75586,1.31544 -0.75586,2.27637 l 0,5.56347 -1.62598,0 0,-13.67578 1.62598,0 0,5.36133 c 0.38672,-0.59179 0.84082,-1.03417 1.36231,-1.32715 0.52733,-0.29296 1.13378,-0.43944 1.81933,-0.43945 1.13085,1e-5 1.98632,0.35157 2.56641,1.05469 0.58007,0.69727 0.87011,1.72559 0.87012,3.08496"
         id="path7153"
         style="font-size:18px" />
    </g>
    <g
       transform="translate(6,0)"
       id="g3989">
      <rect
         width="36.438694"
         height="24.652975"
         x="79.985542"
         y="825.07526"
         id="rect3757-3"
         style="fill:#ffffff;fill-opacity:1;stroke:none" />
      <path
         d="m 79.68826,845.3399 18.59959,-16.69263 18.59958,16.99613"
         id="path3755-7"
         style="fill:none;stroke:#c4c4c4;stroke-width:1;stroke-linecap:butt;stroke-linejoin:miter;stroke-miterlimit:4;stroke-opacity:1;stroke-dasharray:4, 2;stroke-dashoffset:0" />
    </g>
    <path
       d="m 85.633142,828.00952 0,78.82719"
       id="path3866-0-6"
       style="fill:none;stroke:#afafaf;stroke-width:0.33353868;stroke-linecap:butt;stroke-linejoin:miter;stroke-miterlimit:4;stroke-opacity:1;stroke-dasharray:none" />
    <path
       d="m 193.01777,885.36218 -105.380725,0"
       id="path4015"
       style="fill:none;stroke:#000000;stroke-width:1px;stroke-linecap:butt;stroke-linejoin:miter;stroke-opacity:1;marker-start:none;marker-end:url(#Arrow1Mend)" />
    <path
       d="m 64.644813,885.36218 -29.831067,0"
       id="path4397"
       style="fill:none;stroke:#000000;stroke-width:1px;stroke-linecap:butt;stroke-linejoin:miter;stroke-opacity:1;marker-start:url(#Arrow1Mstart)" />
    <g
       id="text4824"
       style="font-size:28px;font-style:normal;font-weight:normal;line-height:125%;letter-spacing:0px;word-spacing:0px;fill:#000000;fill-opacity:1;stroke:none;font-family:Sans">
      <path
         d="m 103.6084,869.97369 0,2.79493 3.33105,0 0,1.25683 -3.33105,0 0,5.34375 c 0,0.80274 0.10839,1.31836 0.32519,1.54688 0.22266,0.22851 0.6709,0.34277 1.34473,0.34277 l 1.66113,0 0,1.35352 -1.66113,0 c -1.24805,0 -2.10938,-0.23145 -2.58398,-0.69434 -0.47462,-0.46875 -0.71192,-1.31836 -0.71192,-2.54883 l 0,-5.34375 -1.18652,0 0,-1.25683 1.18652,0 0,-2.79493 1.62598,0"
         id="path4831"
         style="font-size:18px" />
      <path
         d="m 113.54883,877.66412 c -1.30665,10e-6 -2.21192,0.14942 -2.71582,0.44825 -0.50391,0.29883 -0.75586,0.80859 -0.75586,1.52929 0,0.57422 0.1875,1.03125 0.5625,1.3711 0.38085,0.33398 0.89648,0.50097 1.54687,0.50097 0.89648,0 1.61425,-0.3164 2.15332,-0.94922 0.54492,-0.63867 0.81738,-1.48534 0.81739,-2.54003 l 0,-0.36036 -1.6084,0 m 3.22558,-0.66797 0,5.61622 -1.61718,0 0,-1.49414 c -0.36915,0.59765 -0.82911,1.04003 -1.37989,1.32714 -0.55078,0.28125 -1.22461,0.42188 -2.02148,0.42188 -1.00782,0 -1.81055,-0.28125 -2.4082,-0.84375 -0.5918,-0.56836 -0.8877,-1.32715 -0.8877,-2.27637 0,-1.10742 0.36914,-1.94238 1.10742,-2.50488 0.74414,-0.5625 1.85156,-0.84375 3.32227,-0.84375 l 2.26758,0 0,-0.1582 c -1e-5,-0.74414 -0.2461,-1.31836 -0.73828,-1.72266 -0.48634,-0.41015 -1.17189,-0.61523 -2.05665,-0.61524 -0.5625,1e-5 -1.11035,0.0674 -1.64355,0.20215 -0.53321,0.13478 -1.0459,0.33693 -1.53809,0.60645 l 0,-1.49414 c 0.5918,-0.22851 1.16602,-0.39843 1.72266,-0.50977 0.55664,-0.11718 1.09863,-0.17577 1.62598,-0.17578 1.42382,1e-5 2.48729,0.36915 3.19043,1.10742 0.70311,0.73829 1.05467,1.85743 1.05468,3.35742"
         id="path4833"
         style="font-size:18px" />
      <path
         d="m 120.11426,872.76862 1.61719,0 0,9.84375 -1.61719,0 0,-9.84375 m 0,-3.83204 1.61719,0 0,2.04786 -1.61719,0 0,-2.04786"
         id="path4835"
         style="font-size:18px" />
      <path
         d="m 125.10645,868.93658 1.61718,0 0,13.67579 -1.61718,0 0,-13.67579"
         id="path4837"
         style="font-size:18px" />
      <path
         d="m 139.64355,873.9024 c -0.86719,1e-5 -1.55273,0.33986 -2.05664,1.01954 -0.50391,0.67383 -0.75586,1.59961 -0.75586,2.77734 0,1.17774 0.24903,2.10645 0.74707,2.78613 0.50391,0.67383 1.19238,1.01075 2.06543,1.01074 0.86133,1e-5 1.54394,-0.33984 2.04786,-1.01953 0.50389,-0.67968 0.75585,-1.60546 0.75586,-2.77734 -1e-5,-1.16601 -0.25197,-2.08886 -0.75586,-2.76855 -0.50392,-0.68554 -1.18653,-1.02832 -2.04786,-1.02833 m 0,-1.37109 c 1.40625,1e-5 2.51074,0.45704 3.31348,1.37109 0.80273,0.91408 1.20409,2.1797 1.2041,3.79688 -1e-5,1.61133 -0.40137,2.87695 -1.2041,3.79687 -0.80274,0.91407 -1.90723,1.3711 -3.31348,1.3711 -1.41211,0 -2.51953,-0.45703 -3.32226,-1.3711 -0.79688,-0.91992 -1.19531,-2.18554 -1.19531,-3.79687 0,-1.61718 0.39843,-2.8828 1.19531,-3.79688 0.80273,-0.91405 1.91015,-1.37108 3.32226,-1.37109"
         id="path4839"
         style="font-size:18px" />
      <path
         d="m 157.88086,868.93658 0,1.34473 -1.54688,0 c -0.58008,1e-5 -0.98438,0.1172 -1.21289,0.35156 -0.22266,0.23439 -0.33399,0.65626 -0.33398,1.26563 l 0,0.87012 2.66309,0 0,1.25683 -2.66309,0 0,8.58692 -1.62598,0 0,-8.58692 -4.43847,0 0,8.58692 -1.62598,0 0,-8.58692 -1.54688,0 0,-1.25683 1.54688,0 0,-0.68555 c 0,-1.09569 0.25488,-1.89257 0.76465,-2.39063 0.50976,-0.50389 1.31835,-0.75584 2.42578,-0.75586 l 1.5293,0 0,1.34473 -1.54688,0 c -0.58008,1e-5 -0.98438,0.1172 -1.21289,0.35156 -0.22266,0.23439 -0.33399,0.65626 -0.33398,1.26563 l 0,0.87012 4.43847,0 0,-0.68555 c -1e-5,-1.09569 0.25488,-1.89257 0.76465,-2.39063 0.50976,-0.50389 1.31835,-0.75584 2.42578,-0.75586 l 1.5293,0"
         id="path4841"
         style="font-size:18px" />
      <path
         d="m 165.51855,873.05865 0,1.5293 c -0.45703,-0.23437 -0.93164,-0.41015 -1.42382,-0.52734 -0.4922,-0.11718 -1.00196,-0.17577 -1.5293,-0.17578 -0.80274,1e-5 -1.40625,0.12305 -1.81055,0.36914 -0.39844,0.2461 -0.59766,0.61524 -0.59765,1.10742 -1e-5,0.37501 0.14355,0.6709 0.43066,0.88769 0.28711,0.21095 0.86425,0.4131 1.73145,0.60645 l 0.55371,0.12305 c 1.14843,0.2461 1.96288,0.59473 2.44336,1.0459 0.48632,0.44531 0.72948,1.06933 0.72949,1.87207 -10e-6,0.91406 -0.36329,1.63769 -1.08985,2.17089 -0.72071,0.53321 -1.71387,0.79981 -2.97949,0.79981 -0.52735,0 -1.07813,-0.0527 -1.65234,-0.1582 -0.56836,-0.0996 -1.16895,-0.25196 -1.80176,-0.45704 l 0,-1.66992 c 0.59766,0.31055 1.18652,0.54493 1.7666,0.70313 0.58008,0.15234 1.1543,0.22851 1.72266,0.22851 0.76171,0 1.34765,-0.1289 1.75781,-0.38672 0.41015,-0.26367 0.61523,-0.63281 0.61524,-1.10742 -1e-5,-0.43945 -0.14943,-0.77636 -0.44825,-1.01074 -0.29297,-0.23437 -0.94043,-0.45996 -1.94238,-0.67676 l -0.5625,-0.13183 c -1.00196,-0.21094 -1.72559,-0.5332 -2.1709,-0.9668 -0.44531,-0.43945 -0.66797,-1.04003 -0.66797,-1.80176 0,-0.92577 0.32813,-1.64061 0.98438,-2.14453 0.65625,-0.5039 1.58789,-0.75585 2.79492,-0.75586 0.59765,1e-5 1.16015,0.044 1.6875,0.13184 0.52734,0.0879 1.01366,0.21973 1.45898,0.3955"
         id="path4843"
         style="font-size:18px" />
      <path
         d="m 177.0498,877.28619 0,0.79102 -7.43554,0 c 0.0703,1.11328 0.40429,1.96289 1.00195,2.54883 0.60351,0.58008 1.4414,0.87012 2.51367,0.87011 0.62109,1e-5 1.22168,-0.0762 1.80176,-0.22851 0.58593,-0.15234 1.16601,-0.38086 1.74023,-0.68555 l 0,1.5293 c -0.58008,0.24609 -1.17481,0.43359 -1.78417,0.5625 -0.60939,0.12891 -1.22755,0.19336 -1.8545,0.19336 -1.57031,0 -2.81543,-0.45703 -3.73535,-1.3711 -0.91406,-0.91406 -1.37109,-2.15038 -1.37109,-3.70898 0,-1.61132 0.43359,-2.88866 1.30078,-3.83203 0.87304,-0.94921 2.04785,-1.42382 3.52441,-1.42383 1.32421,1e-5 2.37011,0.42775 3.1377,1.2832 0.77343,0.84962 1.16014,2.00685 1.16015,3.47168 m -1.61718,-0.47461 c -0.0117,-0.88475 -0.26075,-1.59081 -0.74707,-2.11816 -0.48048,-0.52733 -1.11915,-0.79101 -1.91602,-0.79102 -0.90235,1e-5 -1.62598,0.2549 -2.1709,0.76465 -0.53906,0.50978 -0.84961,1.22755 -0.93164,2.15332 l 5.76563,-0.009"
         id="path4845"
         style="font-size:18px" />
      <path
         d="m 181.30371,869.97369 0,2.79493 3.33106,0 0,1.25683 -3.33106,0 0,5.34375 c 0,0.80274 0.1084,1.31836 0.3252,1.54688 0.22265,0.22851 0.67089,0.34277 1.34472,0.34277 l 1.66114,0 0,1.35352 -1.66114,0 c -1.24805,0 -2.10938,-0.23145 -2.58398,-0.69434 -0.47461,-0.46875 -0.71192,-1.31836 -0.71192,-2.54883 l 0,-5.34375 -1.18652,0 0,-1.25683 1.18652,0 0,-2.79493 1.62598,0"
         id="path4847"
         style="font-size:18px" />
    </g>
  </g>
</svg>
